# xmcd CD database file
#
# Track frame offsets:
#	150
#	13748
#	26417
#	40091
#	53766
#	67929
#	82916
#	97151
#	109550
#	123569
#	137598
#	151424
#
# Disc length: 2197 seconds
#
# Revision: 0
# Processed by: cddbd v1.5.2PL0 Copyright (c) Steve Scherf et al.
# Submitted via: CDex 1.81
#
DISCID=9008930c
DTITLE=Charlie Parker - Now's The Time
DYEAR=1957
DGENRE=Jazz
TTITLE0=The Song Is You
TTITLE1=Laird Baird
TTITLE2=Kim (Alternate Take)
TTITLE3=Kim
TTITLE4=Cosmic Rays
TTITLE5=Cosmic Rays (Alternate Take)
TTITLE6=Chi-Chi (Alternate Take)
TTITLE7=Chi-Chi (Alternate Take)
TTITLE8=Chi-Chi
TTITLE9=I Remember You
TTITLE10=Now's The Time
TTITLE11=Confirmation
EXTD=YEAR: 1957
EXTT0=
EXTT1=
EXTT2=
EXTT3=
EXTT4=
EXTT5=
EXTT6=
EXTT7=
EXTT8=
EXTT9=
EXTT10=
EXTT11=
PLAYORDER=
